#!OML:ASF X:\für Bonn\!DataBase\2005_08_12_Daniel\c3d\Daniel.ASF
:FULLY-SPECIFIED
:DEGREES
50
root 0.637198 12.0686 -0.795992 37.6939 -88.1937 -57.6162
lowerback 44.711 -2.24895 3.88652
upperback 3.44149 -2.01502 -1.65755
thorax -17.504 -1.45405 -2.7645
lowerneck 7.09435 1.68155 -0.758204
upperneck -0.255471 2.12435 -0.802854
head -1.26585 1.06495 -0.18898
rclavicle -5.96354e-015 -1.39149e-014
rhumerus 67.4249 2.85683 -95.3997
rradius 7.55749
rwrist 58.2756
rhand -19.4633 7.32119
rfingers 7.12502
rthumb 6.85795 -22.5477
lclavicle -5.96354e-015 -1.39149e-014
lhumerus 68.0265 2.81795 101.756
lradius 6.58815
lwrist -76.6117
lhand -17.9047 3.5005
lfingers 7.12502
lthumb 8.36234 33.315
rfemur -35.9642 -28.7549 -1.96233
rtibia 108.493
rfoot -17.2469 29.4133
rtoes -8.92697
lfemur -39.829 22.6367 1.63159
ltibia 107.668
lfoot -28.5691 -27.8952
ltoes 0.491353
51
root 0.647431 11.8422 -0.798471 40.0938 -88.104 -60.4307
lowerback 45.2097 -2.28232 4.01479
upperback 3.52425 -1.99127 -1.62628
thorax -17.5527 -1.45929 -2.79728
lowerneck 7.18358 1.64694 -0.685225
upperneck -0.590761 2.08051 -0.930245
head -1.38708 1.0488 -0.242671
rclavicle -5.96354e-015 1.98785e-015
rhumerus 67.7414 2.82032 -95.1932
rradius 7.44413
rwrist 58.0773
rhand -19.4624 7.36155
rfingers 7.12502
rthumb 6.85882 -22.5073
lclavicle -5.96354e-015 1.98785e-015
lhumerus 68.0377 2.81133 101.657
lradius 6.76225
lwrist -76.6596
lhand -18.078 3.33371
lfingers 7.12502
lthumb 8.19503 33.1548
rfemur -36.6074 -29.9922 -3.07732
rtibia 110.597
rfoot -17.0625 30.8611
rtoes -8.628
lfemur -40.8731 24.0353 2.91218
ltibia 109.98
lfoot -28.0242 -29.4898
ltoes 0.677557
52
root 0.657412 11.6111 -0.801093 42.5693 -88.0015 -63.3383
lowerback 45.7267 -2.32713 4.15388
upperback 3.606 -1.97485 -1.5934
thorax -17.6057 -1.4687 -2.82947
lowerneck 7.19758 1.61768 -0.638534
upperneck -0.865812 2.04312 -1.02492
head -1.47685 1.03476 -0.280953
rclavicle -1.98785e-016 -1.98785e-015
rhumerus 68.0838 2.80319 -94.9969
rradius 7.27193
rwrist 57.9432
rhand -19.4705 7.39389
rfingers 7.12502
rthumb 6.851 -22.4753
lclavicle -1.98785e-016 -1.98785e-015
lhumerus 68.0238 2.8308 101.546
lradius 6.98725
lwrist -76.713
lhand -18.2002 3.15144
lfingers 7.12502
lthumb 8.07712 32.9771
rfemur -37.1736 -31.3445 -4.34768
rtibia 112.714
rfoot -16.6971 32.4474
rtoes -8.32807
lfemur -41.8617 25.5394 4.34232
ltibia 112.291
lfoot -27.3884 -31.2185
ltoes 1.01381
53
root 0.666835 11.3791 -0.80359 44.7248 -87.8966 -65.9305
lowerback 46.248 -2.37095 4.28238
upperback 3.69298 -1.96061 -1.55299
thorax -17.6495 -1.47843 -2.84608
lowerneck 7.14411 1.5998 -0.618395
upperneck -1.07204 2.01954 -1.10718
head -1.5331 1.02678 -0.310225
rclavicle 1.09332e-015 -9.14409e-015
rhumerus 68.3782 2.78194 -94.7839
rradius 7.1949
rwrist 57.8333
rhand -19.4666 7.43662
rfingers 7.12502
rthumb 6.85472 -22.4324
lclavicle 1.09332e-015 -9.14409e-015
lhumerus 68.0297 2.87384 101.436
lradius 7.20806
lwrist -76.6943
lhand -18.3308 2.989
lfingers 7.12502
lthumb 7.95108 32.8195
rfemur -37.6543 -32.8706 -5.80586
rtibia 114.824
rfoot -16.3343 34.1274
rtoes -8.16053
lfemur -42.7987 27.1292 5.85777
ltibia 114.566
lfoot -26.8143 -32.9336
ltoes 1.18699
54
root 0.675013 11.1491 -0.806834 46.7996 -87.7963 -68.4382
lowerback 46.7949 -2.40904 4.42019
upperback 3.75514 -1.93381 -1.53122
thorax -17.7288 -1.48443 -2.89481
lowerneck 7.13898 1.57551 -0.57857
upperneck -1.30024 1.98945 -1.14738
head -1.60543 1.01473 -0.330213
rclavicle -6.95746e-016 7.15625e-015
rhumerus 68.561 2.71289 -94.5869
rradius 7.25531
rwrist 57.7201
rhand -19.4236 7.4838
rfingers 7.12502
rthumb 6.89629 -22.3839
lclavicle -6.95746e-016 7.15625e-015
lhumerus 68.0734 2.85081 101.324
lradius 7.35146
lwrist -76.6818
lhand -18.4509 2.87411
lfingers 7.12502
lthumb 7.83519 32.7089
rfemur -38.0418 -34.5031 -7.42285
rtibia 116.906
rfoot -15.8636 35.8956
rtoes -7.83878
lfemur -43.6448 28.8605 7.51087
ltibia 116.775
lfoot -26.0804 -34.8009
ltoes 1.59071
55
root 0.684074 10.9211 -0.811487 47.7793 -87.6755 -69.8545
lowerback 47.3545 -2.46466 4.53528
upperback 3.81413 -1.93663 -1.49998
thorax -17.8135 -1.50104 -2.9049
lowerneck 7.11161 1.56662 -0.569896
upperneck -1.47889 1.97801 -1.16678
head -1.65833 1.01113 -0.338485
rclavicle -3.8763e-015 6.36111e-015
rhumerus 68.7622 2.67976 -94.3958
rradius 7.33552
rwrist 57.6405
rhand -19.3719 7.57179
rfingers 7.12502
rthumb 6.94615 -22.2942
lclavicle -3.8763e-015 6.36111e-015
lhumerus 68.2123 2.87045 101.2
lradius 7.41639
lwrist -76.6292
lhand -18.5703 2.80925
lfingers 7.12502
lthumb 7.71991 32.6483
rfemur -38.2466 -36.3333 -9.29947
rtibia 118.956
rfoot -15.3225 37.791
rtoes -7.57061
lfemur -44.4483 30.6494 9.23861
ltibia 118.913
lfoot -25.3372 -36.6768
ltoes 1.93664
56
root 0.69163 10.6907 -0.812934 49.1319 -87.5803 -71.6743
lowerback 48.7616 -2.56058 4.67501
upperback 2.83277 -1.91795 -1.54146
thorax -17.6709 -1.49397 -2.8838
lowerneck 7.04934 1.55992 -0.599345
upperneck -1.61962 1.96769 -1.15791
head -1.69337 1.0073 -0.330829
rclavicle -7.45443e-015 -1.51076e-014
rhumerus 68.9374 2.62944 -94.1743
rradius 7.49328
rwrist 57.5878
rhand -19.3481 7.60322
rfingers 7.12502
rthumb 6.96918 -22.2621
lclavicle -7.45443e-015 -1.51076e-014
lhumerus 68.3724 2.85834 101.115
lradius 7.46071
lwrist -76.5222
lhand -18.6858 2.77088
lfingers 7.12502
lthumb 7.60841 32.614
rfemur -38.2595 -38.3024 -11.516
rtibia 120.985
rfoot -14.5894 39.8798
rtoes -7.14946
lfemur -45.0838 32.6399 11.1586
ltibia 121.013
lfoot -24.6065 -38.6821
ltoes 2.24544
57
root 0.698505 10.4591 -0.815415 50.3848 -87.4832 -73.388
lowerback 49.3203 -2.6104 4.78676
upperback 2.8755 -1.91313 -1.51706
thorax -17.7142 -1.50735 -2.89764
lowerneck 6.97869 1.5651 -0.650946
upperneck -1.70531 1.97225 -1.12816
head -1.70939 1.01001 -0.312877
rclavicle 6.4605e-015 2.78299e-015
rhumerus 69.0575 2.59017 -93.9707
rradius 7.69951
rwrist 57.5323
rhand -19.4177 7.71047
rfingers 7.12502
rthumb 6.90192 -22.157
lclavicle 6.4605e-015 2.78299e-015
lhumerus 68.524 2.87673 101.003
lradius 7.48855
lwrist -76.4069
lhand -18.8214 2.71898
lfingers 7.12502
lthumb 7.47751 32.5668
rfemur -38.0587 -40.4858 -14.0817
rtibia 123.003
rfoot -13.8383 42.1116
rtoes -6.91367
lfemur -45.6151 34.8105 13.2627
ltibia 123.066
lfoot -23.8177 -40.7711
ltoes 2.66935
58
root 0.705416 10.2262 -0.817281 51.2595 -87.3878 -74.7144
lowerback 49.8637 -2.66583 4.92531
upperback 2.91174 -1.90231 -1.51134
thorax -17.7592 -1.52002 -2.94859
lowerneck 6.95234 1.5568 -0.686178
upperneck -1.80755 1.95973 -1.09363
head -1.73868 1.00415 -0.296176
rclavicle 0 2.38542e-015
rhumerus 69.2119 2.50238 -93.7664
rradius 7.79854
rwrist 57.4517
rhand -19.6054 7.84223
rfingers 7.12502
rthumb 6.72071 -22.0311
lclavicle 0 2.38542e-015
lhumerus 68.6154 2.8724 100.883
lradius 7.61667
lwrist -76.3232
lhand -18.9177 2.66882
lfingers 7.12502
lthumb 7.38455 32.5199
rfemur -37.5766 -42.8763 -17.1052
rtibia 125.001
rfoot -12.7846 44.5624
rtoes -6.40423
lfemur -46.0248 37.1398 15.5527
ltibia 125.069
lfoot -23.0618 -42.9462
ltoes 2.9434
59
root 0.711176 9.99505 -0.819382 51.5677 -87.3039 -75.4943
lowerback 50.399 -2.7259 5.03491
upperback 2.96381 -1.91403 -1.5036
thorax -17.7813 -1.54022 -2.97173
lowerneck 6.93955 1.56515 -0.764443
upperneck -1.93428 1.96651 -1.02981
head -1.77909 1.00775 -0.263991
rclavicle -1.49089e-015 2.14687e-014
rhumerus 69.424 2.44929 -93.5674
rradius 7.84267
rwrist 57.3386
rhand -19.8487 7.97437
rfingers 7.12502
rthumb 6.4859 -21.9063
lclavicle -1.49089e-015 2.14687e-014
lhumerus 68.8036 2.88295 100.765
lradius 7.63647
lwrist -76.3018
lhand -19.0709 2.68351
lfingers 7.12502
lthumb 7.23675 32.5398
rfemur -36.6751 -45.401 -20.7013
rtibia 126.95
rfoot -11.4689 47.1949
rtoes -5.84695
lfemur -46.2456 39.6344 18.0629
ltibia 127.021
lfoot -22.3036 -45.1943
ltoes 3.34678
60
root 0.716931 9.76574 -0.821713 51.9543 -87.2219 -76.3578
lowerback 50.9749 -2.78106 5.15077
upperback 2.98898 -1.91123 -1.49697
thorax -17.8381 -1.55535 -3.00535
lowerneck 6.88855 1.56634 -0.847886
upperneck -1.97572 1.96535 -0.938924
head -1.78523 1.00602 -0.221111
rclavicle -4.27387e-015 -1.19271e-015
rhumerus 69.6281 2.36702 -93.3581
rradius 7.8708
rwrist 57.2252
rhand -20.1479 8.17926
rfingers 7.12502
rthumb 6.19705 -21.7101
lclavicle -4.27387e-015 -1.19271e-015
lhumerus 68.9973 2.854 100.666
lradius 7.62266
lwrist -76.2216
lhand -19.2487 2.72833
lfingers 7.12502
lthumb 7.06508 32.5904
rfemur -35.3044 -48.0063 -24.8835
rtibia 128.848
rfoot -9.99007 50.0216
rtoes -5.3031
lfemur -46.2449 42.2514 20.8482
ltibia 128.922
lfoot -21.5913 -47.5036
ltoes 3.60306
61
root 0.721471 9.53626 -0.823842 51.8617 -87.1794 -76.746
lowerback 51.5492 -2.83128 5.22237
upperback 3.02266 -1.93013 -1.5009
thorax -17.8826 -1.57688 -3.01893
lowerneck 6.8434 1.57193 -0.887846
upperneck -2.05806 1.97142 -0.904298
head -1.80476 1.00926 -0.203843
rclavicle 7.45443e-015 5.1684e-015
rhumerus 69.8288 2.31087 -93.1608
rradius 7.94296
rwrist 57.1145
rhand -20.4299 8.36976
rfingers 7.12502
rthumb 5.92475 -21.5274
lclavicle 7.45443e-015 5.1684e-015
lhumerus 69.1883 2.86739 100.547
lradius 7.6558
lwrist -76.1717
lhand -19.4509 2.71598
lfingers 7.12502
lthumb 6.86988 32.5845
rfemur -33.3371 -50.6807 -29.8688
rtibia 130.716
rfoot -8.14237 52.9612
rtoes -4.52784
lfemur -45.9482 45.0016 23.9139
ltibia 130.769
lfoot -20.9456 -49.8695
ltoes 3.99323
